HIERARCHY
ROOT Hips
{
 OFFSET 0.000000 0.000000 0.000000
 CHANNELS 6 Xposition Yposition Zposition Yrotation Xrotation Zrotation
 JOINT Chest
 {
  OFFSET 0.000000 9.581000 -0.001100
  CHANNELS 3 Yrotation Xrotation Zrotation
  JOINT Chest2
  {
   OFFSET 0.000000 9.561100 0.002200
   CHANNELS 3 Yrotation Xrotation Zrotation
   JOINT Chest3
   {
    OFFSET 0.000000 9.521100 0.000000
    CHANNELS 3 Yrotation Xrotation Zrotation
    JOINT Chest4
    {
     OFFSET 0.000000 9.511400 0.000000
     CHANNELS 3 Yrotation Xrotation Zrotation
     JOINT Neck
     {
      OFFSET 0.000000 14.375100 0.000000
      CHANNELS 3 Yrotation Xrotation Zrotation
      JOINT Head
      {
       OFFSET 0.000000 8.901200 0.004600
       CHANNELS 3 Yrotation Xrotation Zrotation
       End Site
       {
        OFFSET 0.000000 16.962200 0.002400
       }
      }
     }
     JOINT RightCollar
     {
      OFFSET -2.920100 9.518800 0.000000
      CHANNELS 3 Yrotation Xrotation Zrotation
      JOINT RightShoulder
      {
       OFFSET -13.664500 0.000000 0.000000
       CHANNELS 3 Yrotation Xrotation Zrotation
       JOINT RightElbow
       {
        OFFSET 0.000000 -29.999200 0.000000
        CHANNELS 3 Yrotation Xrotation Zrotation
        JOINT RightWrist
        {
         OFFSET 0.000000 -24.253600 0.000000
         CHANNELS 3 Yrotation Xrotation Zrotation
         End Site
         {
          OFFSET 0.000000 -17.918900 0.000000
         }
        }
       }
      }
     }
     JOINT LeftCollar
     {
      OFFSET 2.920100 9.518800 0.000000
      CHANNELS 3 Yrotation Xrotation Zrotation
      JOINT LeftShoulder
      {
       OFFSET 13.664500 0.000000 0.000000
       CHANNELS 3 Yrotation Xrotation Zrotation
       JOINT LeftElbow
       {
        OFFSET 0.000000 -29.999200 0.000000
        CHANNELS 3 Yrotation Xrotation Zrotation
        JOINT LeftWrist
        {
         OFFSET 0.000000 -24.253600 0.000000
         CHANNELS 3 Yrotation Xrotation Zrotation
         End Site
         {
          OFFSET 0.000000 -17.918900 0.000000
         }
        }
       }
      }
     }
    }
   }
  }
 }
 JOINT RightHip
 {
  OFFSET -7.797300 0.005300 0.000500
  CHANNELS 3 Yrotation Xrotation Zrotation
  JOINT RightKnee
  {
   OFFSET 0.000000 -40.663400 -0.000500
   CHANNELS 3 Yrotation Xrotation Zrotation
   JOINT RightAnkle
   {
    OFFSET 0.000000 -39.523700 -0.000900
    CHANNELS 3 Yrotation Xrotation Zrotation
    JOINT RightToe
    {
     OFFSET 0.000000 -6.418000 14.485300
     CHANNELS 3 Yrotation Xrotation Zrotation
     End Site
     {
      OFFSET 0.000000 -1.465200 6.326400
     }
    }
   }
  }
 }
 JOINT LeftHip
 {
  OFFSET 7.797300 0.005300 0.000500
  CHANNELS 3 Yrotation Xrotation Zrotation
  JOINT LeftKnee
  {
   OFFSET 0.000000 -40.663400 -0.000500
   CHANNELS 3 Yrotation Xrotation Zrotation
   JOINT LeftAnkle
   {
    OFFSET 0.000000 -39.523700 -0.000900
    CHANNELS 3 Yrotation Xrotation Zrotation
    JOINT LeftToe
    {
     OFFSET 0.000000 -6.418000 14.485300
     CHANNELS 3 Yrotation Xrotation Zrotation
     End Site
     {
      OFFSET 0.000000 -1.465200 6.326400
     }
    }
   }
  }
 }
}
MOTION
Frames: 12
Frame Time: 0.008333
-15.191985 126.903907 11.104889 -177.823676 -47.219586 -4.214752 3.226247 26.302543 3.274085 0.417445 4.464070 0.428459 0.692614 7.075111 0.706375 2.502002 21.545763 2.528667 2.825505 18.834609 3.510664 2.201582 -5.764369 3.095742 3.630218 1.773870 3.809083 -23.312324 -24.471244 -9.068383 -93.981326 -38.774639 120.852890 -22.257354 -16.276256 -1.315797 -10.210350 -3.555197 -1.757803 14.884090 -23.901547 10.965116 71.978099 -28.985848 -103.979660 19.777775 -24.492700 -10.688553 1.085715 -25.977090 3.319433 -11.614056 73.599719 -15.555237 9.419534 -5.594460 9.498507 -0.000362 0.001136 -0.000160 7.472532 -6.419941 6.814344 144.628849 69.640653 161.799633 -3.579044 -14.885389 -11.356855 0.000054 -0.005155 0.000024
-15.190480 126.903782 11.104629 -177.836273 -47.213126 -4.211303 3.246338 26.287501 3.288599 0.428520 4.447266 0.435491 0.683574 7.079895 0.703450 2.493966 21.557790 2.526724 2.835664 18.771374 3.512280 2.192327 -5.811911 3.099297 3.600720 1.791077 3.791476 -23.108323 -24.281378 -9.216943 -93.664199 -38.872106 120.868595 -22.177650 -16.118661 -1.164344 -10.111167 -3.570469 -1.688971 14.660282 -23.730002 11.019203 71.764864 -29.427464 -103.842406 19.411134 -24.358529 -10.239975 1.086454 -25.978939 3.314531 -11.577494 73.603779 -15.523807 9.511325 -5.650924 9.483672 0.010003 0.000333 0.004432 7.472718 -6.421918 6.815507 144.625956 69.639938 161.793604 -3.570396 -14.885315 -11.353123 0.000864 -0.005418 0.000383
-15.190265 126.902997 11.104958 -177.844334 -47.202640 -4.202486 3.260793 26.268291 3.292137 0.425752 4.446338 0.435962 0.702270 7.055101 0.709568 2.488786 21.562331 2.532316 2.821232 18.764172 3.513875 2.187769 -5.835940 3.101065 3.556281 1.829059 3.773934 -22.893951 -24.090921 -9.374964 -93.346921 -39.015163 120.885585 -22.092601 -15.965737 -1.012581 -10.049526 -3.555313 -1.635583 14.443354 -23.574107 11.091163 71.526944 -29.892331 -103.690180 19.014298 -24.191913 -9.747744 1.089472 -25.979500 3.308961 -11.574058 73.603627 -15.517081 9.499783 -5.728854 9.464919 0.005576 -0.006037 0.002470 7.470225 -6.426259 6.810311 144.616935 69.636778 161.778779 -3.570707 -14.890378 -11.353596 0.001333 -0.003423 0.000591
-15.188761 126.902330 11.105335 -177.860241 -47.194030 -4.194431 3.286139 26.248279 3.304317 0.415329 4.453124 0.433999 0.723288 7.032157 0.713797 2.530421 21.527960 2.548930 2.788364 18.731726 3.523465 2.173866 -5.895178 3.109717 3.447883 1.902687 3.743517 -22.653490 -23.898480 -9.517043 -93.026568 -39.202130 120.901845 -21.994941 -15.807542 -0.856750 -10.033174 -3.506280 -1.580884 14.220809 -23.424022 11.168159 71.266376 -30.383626 -103.525722 18.575160 -23.984839 -9.200036 1.097706 -25.987494 3.314874 -11.605311 73.610490 -15.539178 9.469881 -5.770536 9.453122 0.001705 -0.006543 0.000755 7.462652 -6.425417 6.807016 144.595666 69.633460 161.746519 -3.571197 -14.896211 -11.359044 0.000030 -0.001205 0.000013
-15.188127 126.902012 11.105440 -177.866263 -47.189182 -4.187039 3.303390 26.231486 3.313526 0.419524 4.449569 0.429947 0.726299 7.023759 0.719940 2.526131 21.534244 2.550189 2.802622 18.656908 3.525170 2.159123 -5.952972 3.119297 3.389212 1.935417 3.704982 -22.405552 -23.708941 -9.659407 -92.705453 -39.432887 120.912146 -21.879628 -15.644650 -0.692916 -10.013314 -3.493653 -1.553271 14.009711 -23.287944 11.283440 70.990294 -30.903871 -103.348694 18.070812 -23.732932 -8.586007 1.104917 -25.990130 3.318050 -11.644419 73.620988 -15.567336 9.392898 -5.812970 9.445501 -0.008395 -0.005949 -0.003719 7.464089 -6.427189 6.799690 144.616448 69.630209 161.775644 -3.567185 -14.902460 -11.368204 0.005996 -0.002716 0.002656
-15.188594 126.901825 11.105513 -177.872363 -47.186840 -4.171554 3.317834 26.217917 3.316675 0.418119 4.443880 0.428810 0.733537 7.017882 0.721962 2.547808 21.515849 2.558309 2.773174 18.659404 3.530963 2.163296 -6.030011 3.119242 3.308175 1.984538 3.667638 -22.144624 -23.515193 -9.801769 -92.384143 -39.705376 120.914207 -21.745874 -15.475879 -0.517418 -9.980955 -3.463658 -1.503668 13.746820 -23.140194 11.380054 70.696256 -31.456154 -103.144045 17.511822 -23.431873 -7.941551 1.116673 -25.992319 3.310272 -11.673387 73.635340 -15.592477 9.352743 -5.861406 9.442359 -0.012457 -0.005988 -0.005519 7.460000 -6.421208 6.781512 144.614970 69.628325 161.767343 -3.564713 -14.908535 -11.367233 0.005533 -0.001499 0.002451
-15.188485 126.901661 11.105809 -177.874388 -47.185305 -4.161301 3.329960 26.206390 3.321712 0.424782 4.437810 0.431148 0.732014 7.012731 0.720607 2.569507 21.498539 2.564662 2.764260 18.611758 3.537061 2.146789 -6.054797 3.129065 3.230885 2.029679 3.632295 -21.861096 -23.322501 -9.944389 -92.058513 -40.019167 120.906859 -21.595415 -15.302146 -0.332075 -9.962648 -3.439899 -1.459348 13.466025 -22.991486 11.497473 70.379235 -32.045664 -102.892654 16.951642 -23.087358 -7.346779 1.125114 -25.996032 3.295090 -11.707143 73.655360 -15.620607 9.401367 -5.921870 9.431367 -0.000181 -0.005487 -0.000080 7.451688 -6.417888 6.764628 144.606857 69.623651 161.749227 -3.561552 -14.909746 -11.366301 0.003093 -0.002096 0.001370
-15.187396 126.901347 11.106573 -177.880412 -47.183526 -4.153242 3.346615 26.194123 3.331578 0.441773 4.419980 0.438889 0.719405 7.020095 0.714860 2.581121 21.489673 2.568594 2.764534 18.559013 3.541759 2.133167 -6.079224 3.137852 3.145400 2.062956 3.560961 -21.543220 -23.117057 -10.055679 -91.727533 -40.375211 120.886455 -21.427993 -15.124154 -0.138920 -9.958050 -3.422997 -1.427753 13.169727 -22.847600 11.640737 70.030341 -32.668764 -102.583810 16.448168 -22.731705 -6.878078 1.130118 -25.998800 3.287345 -11.718013 73.663058 -15.635908 9.467454 -5.970725 9.428616 0.011266 -0.005668 0.004991 7.441565 -6.410499 6.747941 144.587898 69.615904 161.718581 -3.551235 -14.917619 -11.372456 -0.000693 0.000198 -0.000307
-15.186590 126.901124 11.107545 -177.883575 -47.183877 -4.145414 3.353421 26.189154 3.332491 0.450657 4.410847 0.443173 0.722034 7.015270 0.715583 2.576433 21.494563 2.568014 2.762227 18.540882 3.544096 2.142673 -6.149433 3.137246 3.116670 2.077505 3.544122 -21.219729 -22.934832 -10.226869 -91.396725 -40.773938 120.849520 -21.242744 -14.938471 0.065322 -9.957983 -3.414575 -1.412638 12.856412 -22.713302 11.812371 69.636216 -33.303537 -102.226385 16.039918 -22.406565 -6.561352 1.130878 -25.998253 3.283668 -11.726282 73.667467 -15.645956 9.455363 -6.006603 9.427188 0.008834 -0.005665 0.003914 7.440754 -6.405594 6.738912 144.578496 69.609230 161.704679 -3.548354 -14.926190 -11.373228 -0.000706 0.001710 -0.000313
-15.186589 126.901379 11.108352 -177.880039 -47.189821 -4.137944 3.352905 26.189912 3.327948 0.456695 4.405774 0.446209 0.723359 7.012783 0.716392 2.576179 21.493971 2.567463 2.760326 18.522545 3.546025 2.154889 -6.217102 3.136052 3.090708 2.092302 3.526499 -20.878780 -22.759895 -10.397842 -91.062149 -41.218750 120.790719 -21.035380 -14.740805 0.285733 -9.957854 -3.406789 -1.397824 12.524877 -22.579861 11.993268 69.185844 -33.904911 -101.851937 15.733234 -22.131964 -6.364777 1.132804 -25.992719 3.278773 -11.779686 73.678479 -15.691990 9.389460 -6.042911 9.423816 -0.000225 -0.004936 -0.000100 7.438820 -6.396011 6.727789 144.569234 69.608460 161.693333 -3.547737 -14.928331 -11.373851 0.001051 0.002359 0.000466
-15.185978 126.901948 11.109221 -177.872903 -47.199823 -4.137020 3.362859 26.187228 3.337838 0.444524 4.414795 0.439986 0.723628 7.012197 0.716737 2.596987 21.478369 2.577832 2.759903 18.483620 3.547090 2.155665 -6.254347 3.134214 3.048309 2.109351 3.485136 -20.516759 -22.584802 -10.549645 -90.715811 -41.711380 120.704090 -20.794049 -14.527675 0.519509 -9.949244 -3.404723 -1.378335 12.170783 -22.439720 12.169354 68.659193 -34.416902 -101.485848 15.500665 -21.914424 -6.240671 1.130998 -25.985168 3.274957 -11.850327 73.691704 -15.754149 9.360941 -6.071983 9.417632 -0.002626 -0.000980 -0.001164 7.435830 -6.384250 6.721715 144.558998 69.607474 161.682063 -3.549126 -14.928931 -11.372752 0.001338 0.002806 0.000593
-15.184913 126.902483 11.110418 -177.871409 -47.211641 -4.134633 3.373542 26.186536 3.345349 0.445787 4.412712 0.441216 0.725818 7.009288 0.718633 2.632527 21.452260 2.595783 2.754750 18.429622 3.546789 2.135939 -6.250420 3.138475 2.983734 2.148008 3.443454 -20.137217 -22.420971 -10.700775 -90.359898 -42.252137 120.590051 -20.515477 -14.298929 0.758059 -9.972438 -3.404916 -1.361041 11.819329 -22.286552 12.351066 68.041879 -34.803686 -101.128933 15.297876 -21.753211 -6.148533 1.131883 -25.975757 3.272664 -11.881424 73.702740 -15.781545 9.335160 -6.098439 9.416542 -0.006128 0.002728 -0.002715 7.437278 -6.372323 6.718751 144.564956 69.607592 161.687863 -3.544577 -14.929028 -11.369910 0.002023 0.002631 0.000896
